<?xml version="1.0" standalone="no"?><!DOCTYPE svg PUBLIC "-//W3C//DTD SVG 1.1//EN" "http://www.w3.org/Graphics/SVG/1.1/DTD/svg11.dtd"><svg t="1527039673544" class="icon" style="" viewBox="0 0 1024 1024" version="1.1" xmlns="http://www.w3.org/2000/svg" p-id="2804" xmlns:xlink="http://www.w3.org/1999/xlink" width="32" height="32"><defs><style type="text/css"></style></defs><path d="M997.34878 927.061571c-48.351456 85.31104-156.41424 96.702912-176.318016 96.702912H218.157546c-8.543904 0-102.398848 8.511904-173.470049-76.799136C4.879945 898.64589-15.023831 804.790946 13.39185 733.687746c122.302624-301.436609 352.636033-449.306945 352.636032-449.306945h292.892705s213.277601 142.174401 335.580225 409.499393c45.503488 108.062784 28.44768 181.981953 2.847968 233.181377z m-315.676449-159.262209h-127.96656v-85.31104h71.1032c31.263648 0 56.86336-25.599712 56.86336-56.86336v-28.44768h-71.0712l42.65552-156.382241-82.495072-22.751744-48.319456 179.133985h-22.751744l-48.351456-179.133985-82.463073 22.719744 42.65552 156.414241h-71.1032v28.44768c0 31.295648 25.599712 56.86336 56.863361 56.86336h71.1032v85.31104h-127.966561v28.47968c0 31.263648 25.599712 56.831361 56.863361 56.831361h71.1032v85.343039h85.31104V853.110403h71.1032c31.263648 0 56.86336-25.599712 56.86336-56.863361v-28.44768zM340.42817 199.06976L255.11713 85.31104C255.11713 36.991584 292.076714 0 340.42817 0h341.244161c48.351456 0 85.31104 36.959584 85.311041 85.31104l-85.311041 113.75872H340.42817z" p-id="2805"></path></svg>