<?xml version="1.0" standalone="no"?><!DOCTYPE svg PUBLIC "-//W3C//DTD SVG 1.1//EN" "http://www.w3.org/Graphics/SVG/1.1/DTD/svg11.dtd"><svg class="icon" width="200px" height="200.00px" viewBox="0 0 1024 1024" version="1.1" xmlns="http://www.w3.org/2000/svg"><path fill="#333333" d="M923.880233 151.623279c0-26.749224-21.684882-48.434106-48.434105-48.434105H153.66938c-26.749224 0-48.434106 21.684882-48.434106 48.434105v721.777771c0 26.749224 21.684882 48.434106 48.434106 48.434106h721.777771c26.749224 0 48.434106-21.684882 48.434106-48.434106V151.623279zM154.832879 136.958278h721.777771c7.894807 0 13.500479 8.566096 13.500479 16.460904v77.683267h-751.10675v-77.683267C139.004379 145.524374 146.939095 136.958278 154.832879 136.958278zM876.61065 888.065028H154.832879c-7.894807 0-15.8285-4.973268-15.8285-12.868076V264.871553h751.10675v610.325399C890.111129 883.09176 884.505457 888.065028 876.61065 888.065028z"  /><path fill="#333333" d="M370.272 393.126c0-18.839-15.272-34.11-34.11-34.11h-77.089c-18.838 0-34.11 15.272-34.11 34.11v34.11c0 18.839 15.272 34.11 34.11 34.11h77.089c18.839 0 34.11-15.272 34.11-34.11v-34.11z"  /><path fill="#333333" d="M370.272 564.018c0-18.838-15.272-34.11-34.11-34.11h-77.089c-18.838 0-34.11 15.272-34.11 34.11v34.11c0 18.838 15.272 34.11 34.11 34.11h77.089c18.839 0 34.11-15.272 34.11-34.11v-34.11z"  /><path fill="#333333" d="M370.272 733.887c0-18.838-15.272-34.11-34.11-34.11h-77.089c-18.838 0-34.11 15.272-34.11 34.11v34.11c0 18.838 15.272 34.11 34.11 34.11h77.089c18.839 0 34.11-15.272 34.11-34.11v-34.11z"  /><path fill="#333333" d="M583.119 563.79c0-18.839-15.272-34.11-34.11-34.11h-77.089c-18.839 0-34.11 15.272-34.11 34.11v34.11c0 18.839 15.272 34.11 34.11 34.11h77.089c18.838 0 34.11-15.272 34.11-34.11v-34.11z"  /><path fill="#333333" d="M583.119 734.682c0-18.838-15.272-34.11-34.11-34.11h-77.089c-18.839 0-34.11 15.272-34.11 34.11v34.11c0 18.838 15.272 34.11 34.11 34.11h77.089c18.838 0 34.11-15.272 34.11-34.11v-34.11z"  /><path fill="#333333" d="M805.177 734.454c0-18.839-15.272-34.11-34.11-34.11h-77.089c-18.838 0-34.11 15.272-34.11 34.11v34.11c0 18.839 15.272 34.11 34.11 34.11h77.089c18.838 0 34.11-15.272 34.11-34.11v-34.11z"  /></svg>