<?xml version="1.0" standalone="no"?><!DOCTYPE svg PUBLIC "-//W3C//DTD SVG 1.1//EN" "http://www.w3.org/Graphics/SVG/1.1/DTD/svg11.dtd"><svg class="icon" width="200px" height="200.00px" viewBox="0 0 1024 1024" version="1.1" xmlns="http://www.w3.org/2000/svg"><path fill="#333333" d="M191.69536 131.569112 252.859125 124.704053C250.099454 128.402814 244.529512 136.654717 237.069387 149.111587 224.261743 170.497706 211.36972 195.42309 199.299301 223.532671 164.731996 304.032981 144 393.301148 144 488.727274 144 624.788883 213.136787 732.698272 331.067716 816.890963 373.395349 847.109309 419.015744 871.951274 464.634106 891.640934 480.567261 898.517955 495.309085 904.240534 508.44695 908.851405 516.091178 911.534224 521.327418 913.203002 523.7448 913.905174L496.863837 913.935168C499.285194 913.225978 504.525507 911.543635 512.173942 908.842141 525.316928 904.199923 540.063971 898.443731 556.00248 891.53224 601.635501 871.74417 647.270557 846.816877 689.612445 816.537091 807.565917 732.185501 876.711462 624.346157 876.711462 488.727274 876.711462 404.804821 855.915139 317.564396 821.104128 232.638664 808.827427 202.688144 795.677725 175.224356 782.573066 150.921774 775.71079 138.195689 770.317235 128.96618 767.040205 123.692144 767.905677 123.224047 768.75817 122.755305 769.597555 122.286518L824.936342 128.351721C826.695638 131.616686 828.547149 135.107182 830.476243 138.813196 821.16608 146.579902 808.705699 155.403225 793.231251 164.065755 707.490941 212.06281 605.337398 212.06281 501.375802 134.466474L556.623747 135.997484C442.690509 211.587805 331.28804 211.587805 235.856339 165.384775 215.326488 155.445297 199.457545 145.270683 188.641411 136.900533 189.680582 135.06505 190.699281 133.287658 191.69536 131.569112L191.69536 131.569112ZM96 488.727274C96 254.673461 214.387352 96 214.387352 96 214.387352 96 352.505929 213.818182 530.086957 96 687.936758 213.818182 806.324112 96 806.324112 96 806.324112 96 924.711462 280.913655 924.711462 488.727274 924.711462 838.639645 510.355731 960 510.355731 960 510.355731 960 96 839.642947 96 488.727274L96 488.727274ZM471.678742 460.800957 391.341481 460.800957C378.066139 460.800957 367.304348 471.511008 367.304348 484.722525 367.304348 497.934045 378.066139 508.644096 391.341481 508.644096L493.213139 508.644096 493.213139 570.441485 391.341481 570.441485C378.066139 570.441485 367.304348 581.151536 367.304348 594.363056 367.304348 607.574573 378.066139 618.284627 391.341481 618.284627L493.213139 618.284627 493.213139 720.078429C493.213139 733.289949 503.974931 744 517.250275 744 530.525616 744 541.287408 733.289949 541.287408 720.078429L541.287408 618.284627 643.159066 618.284627C656.43441 618.284627 667.196202 607.574573 667.196202 594.363056 667.196202 581.151536 656.43441 570.441485 643.159066 570.441485L541.287408 570.441485 541.287408 508.644096 643.159066 508.644096C656.43441 508.644096 667.196202 497.934045 667.196202 484.722525 667.196202 471.511008 656.43441 460.800957 643.159066 460.800957L560.861485 460.800957 632.004998 348.698616C639.093939 337.528424 635.741683 322.754101 624.51753 315.699243 613.293376 308.644385 598.44768 311.980522 591.358739 323.150714L504.00176 460.800957 529.928886 460.800957 434.787402 322.416539C427.291027 311.512977 412.332233 308.721688 401.375997 316.18202 390.419761 323.642351 387.614987 338.529229 395.111359 349.432791L471.678742 460.800957Z" /></svg>