<svg class="icon" viewBox="0 0 1024 1024" xmlns="http://www.w3.org/2000/svg" width="32" height="32"><defs><style/></defs><path d="M822.825 241.678L631.379 50.233c-16.663-16.663-39.53-26.88-64.95-27.002l-423.88-1.46C75.046 23.354 20.8 77.722 20.8 145.227v735.738c0 68.112 55.22 123.21 123.21 123.21h430.205c-22.259-16.785-41.963-36.124-58.87-57.774l.122.122H142.55c-36.367-.122-65.68-29.556-65.802-65.802V145.226c0-36.246 29.678-65.802 64.22-65.802 3.285 0 348.47 0 437.26 1.703l6.567 4.987v126.738c0 40.867 33.205 74.072 74.073 74.072h128.32l4.986 4.987V453.68c19.826 2.189 39.043 6.203 57.652 12.04V306.75c0-25.42-10.338-48.409-27.001-65.072z"/><path d="M234.745 698.154c-16.42 0-31.259 13.136-31.259 31.259 0 16.42 13.136 31.259 31.26 31.259h216.013c0-.73-.121-1.338-.121-2.068 0-20.677 2.068-40.867 6.081-60.45H234.745zm522.886-14.23c-38.07 0-66.531 31.258-66.531 72.977s28.583 72.978 66.531 72.978c38.07 0 66.531-31.259 66.531-72.978 1.703-40.016-28.46-72.977-66.53-72.977z"/><path d="M757.631 574.457c-110.926 0-207.622 76.505-245.57 184.269 38.07 107.764 133.063 184.269 245.57 184.269s207.622-78.208 245.57-185.972c-37.948-106.183-132.94-182.566-245.57-182.566zm0 305.898c-61.788 0-110.926-53.882-110.926-121.63s49.138-121.629 110.926-121.629c61.788 0 110.926 53.882 110.926 121.63 1.703 67.747-47.435 121.63-110.926 121.63zM667.14 390.431c-1.703-16.42-14.84-31.259-32.962-31.259H234.745c-16.42 0-31.259 13.136-31.259 31.26 0 16.42 13.136 31.258 31.26 31.258H635.88c16.42 0 31.259-13.136 31.259-31.259zM554.996 528.602h-320.25c-16.42 0-31.26 13.136-31.26 31.26 0 18.122 13.136 31.258 31.26 31.258h265.882c0 .122 25.907-40.99 54.368-62.518z"/></svg>