<svg class="icon" viewBox="0 0 1024 1024" xmlns="http://www.w3.org/2000/svg" width="32" height="32"><defs><style/></defs><path d="M923.733 618.563v202.771C923.733 915.59 847.35 992 753.067 992h-512C146.81 992 70.4 915.616 70.4 821.333v-512c0-94.257 76.384-170.666 170.667-170.666H326.4V224h-56.884c-62.82 0-113.783 50.942-113.783 113.782v455.103c0 62.82 50.942 113.782 113.783 113.782h455.103c62.819 0 113.781-50.942 113.781-113.783v-174.32h85.333zM713.101 47.14c-20.178-20.186-53.21-20.186-73.392 0L398.013 288.836c-20.18 20.185-13.341 36.694 15.204 36.694h181.376c1.942 53.53-13.083 237.73-268.193 279.335 136.51 48.915 431.227-30.654 454.35-279.335l158.85.003c28.544 0 35.382-16.511 15.202-36.694L713.101 47.14z"/></svg>