<?xml version="1.0" standalone="no"?><!DOCTYPE svg PUBLIC "-//W3C//DTD SVG 1.1//EN" "http://www.w3.org/Graphics/SVG/1.1/DTD/svg11.dtd"><svg class="icon" width="200px" height="200.00px" viewBox="0 0 1024 1024" version="1.1" xmlns="http://www.w3.org/2000/svg"><path fill="#333333" d="M280.540805 542.261231v-37.372414h-51.295469a23.160369 23.160369 0 0 1-22.984912-22.835257 22.86622 22.86622 0 0 1 22.897183-22.835256H251.440689l-30.271551-35.958434a23.036517 23.036517 0 0 1 2.621539-32.387361 23.361629 23.361629 0 0 1 32.475089 3.02922l43.802409 52.069546c0.830842 0.954694 1.537832 1.991957 2.167414 3.070503 0.650224-1.083707 1.388177-2.110649 2.208699-3.070503l43.802409-52.069546a23.366789 23.366789 0 0 1 32.433805-3.02922 23.046838 23.046838 0 0 1 2.667984 32.387361l-30.312836 35.958434h30.601824c12.700015 0 23.026196 10.630651 23.026196 22.835256a22.876541 22.876541 0 0 1-22.897183 22.840418H326.340332v37.372413H383.632314c12.700015 0 23.026196 10.630651 23.026195 22.835257a22.86622 22.86622 0 0 1-22.902343 22.835257H326.340332v30.065131a22.86622 22.86622 0 0 1-22.902344 22.835257 22.86622 22.86622 0 0 1-22.902343-22.835257v-30.065131h-51.29547a23.160369 23.160369 0 0 1-22.984911-22.835257 22.86622 22.86622 0 0 1 22.897183-22.835257h51.388358v-0.00516z m569.157809-447.736169V51.543174v230.90702c63.938719 0 101.037625-51.692829 101.037625-115.45093 0-63.763262-37.098906-115.45609-101.037625-115.45609H196.80637c-63.861311 0.092889-115.55414 51.790878-115.461251 115.471572v707.046636c0 8.303261 5.243078 18.397218 11.781445 23.17069l83.068729 60.826931a41.216993 41.216993 0 0 0 46.423948-0.418001l89.730948-68.09293c0.959855-0.70699 1.873265-0.500569 2.6267 0l137.470826 68.510931c12.865151 9.428252 33.558797 9.3044 46.217527-0.418001l103.545633-68.09293c0.91341-0.70699 1.831981-0.500569 2.580255 0l107.044459 68.510931c12.700015 9.428252 33.434944 9.3044 46.258812-0.418001l80.153041-60.414091a32.975659 32.975659 0 0 0 11.409888-23.253258V94.525062c31.964199 0 43.141864 40.57709 43.141864 72.45356 0 31.87647-11.177665 72.4484-43.141864 72.4484V94.525062h0.041284zM124.652119 259.155652V175.777292s11.280875-70.255183 78.563604-65.853268c32.975659 4.732188 54.211158 28.857572 51.919892 65.811984-7.121504 40.319065-44.968684 49.700872-57.503563 49.700872-47.342519 5.810734-29.1414 57.013315 0 57.013314h609.084674v568.115386a19.367394 19.367394 0 0 1-6.538366 13.288313l-58.705962 49.035166a11.683395 11.683395 0 0 1-13.489573 0.206421l-60.254115-53.230661c-18.902948-13.412165-93.756146-13.494734-112.282376-0.418001l-76.200091 53.648662a12.514237 12.514237 0 0 1-13.825006 0l-118.903311-53.230661c-18.82038-13.412165-49.091932-13.494734-67.871028 0l-74.197813 53.230661c-4.138729 2.662823-9.479857 2.580255-13.530857-0.206421l-59.536804-49.035166a19.341591 19.341591 0 0 1-6.662218-13.577302V259.155652h-0.067087z m188.446344-92.17703c0-35.003739-15.945976-72.45356-15.945976-72.45356h552.504843v144.90196H282.419231s30.684392-37.403377 30.679232-72.4484z m198.437091 249.964784c0-12.622607 10.243612-22.835257 23.150048-22.835257h169.656927c12.782583 0 23.150048 10.589367 23.150048 22.835257 0 12.622607-10.243612 22.835257-23.150048 22.835257h-169.656927a23.237777 23.237777 0 0 1-23.150048-22.835257z m0 150.604324c0-12.622607 10.243612-22.835257 23.150048-22.835257h169.656927c12.782583 0 23.150048 10.589367 23.150048 22.835257 0 12.622607-10.243612 22.835257-23.150048 22.835256h-169.656927a23.242937 23.242937 0 0 1-23.150048-22.835256z m-312.272781 150.604324c0-12.622607 10.408749-22.835257 22.690762-22.835257h486.305821c12.493595 0 22.690762 10.589367 22.690762 22.835257 0 12.622607-10.408749 22.835257-22.737207 22.835256H221.994819a23.031356 23.031356 0 0 1-22.690762-22.835256h-0.041284z"  /></svg>