<?xml version="1.0" standalone="no"?><!DOCTYPE svg PUBLIC "-//W3C//DTD SVG 1.1//EN" "http://www.w3.org/Graphics/SVG/1.1/DTD/svg11.dtd"><svg t="1515045007153" class="icon" style="" viewBox="0 0 1024 1024" version="1.1" xmlns="http://www.w3.org/2000/svg" p-id="890" xmlns:xlink="http://www.w3.org/1999/xlink" width="200" height="200"><defs><style type="text/css"></style></defs><path d="M932 332l-77.04-77.04-197.4 197.4L571.58 366.44l197.46-197.4L692 92c0-33.12 26.82-60 60-60l180 0c33.12 0 60 26.82 60 60l0 180C992 305.06 965.12 332 932 332L932 332 932 332 932 332zM332 932c0 33.06-26.88 60-60 60L92 992c-33.18 0-60-26.94-60-60l0-180c0-33.18 26.82-60 60-60l77.04 76.98 197.46-197.34 85.92 85.92-197.4 197.4L332 932 332 932 332 932zM932 992l-180 0c-33.18 0-60-26.94-60-60l77.04-77.04-197.46-197.4 85.98-85.92 197.4 197.34L932 692c33.12 0 60 26.82 60 60l0 180C992 965.06 965.12 992 932 992L932 992 932 992 932 992zM366.44 452.36l-197.46-197.4L92 332C58.82 332 32 305.06 32 272L32 92c0-33.12 26.82-60 60-60l180 0c33.12 0 60 26.82 60 60L254.96 169.04l197.46 197.4L366.44 452.36 366.44 452.36 366.44 452.36z" p-id="891"></path></svg>