<?xml version="1.0" standalone="no"?><!DOCTYPE svg PUBLIC "-//W3C//DTD SVG 1.1//EN" "http://www.w3.org/Graphics/SVG/1.1/DTD/svg11.dtd"><svg t="1513664384770" class="icon" style="" viewBox="0 0 1084 1024" version="1.1" xmlns="http://www.w3.org/2000/svg" p-id="4042" xmlns:xlink="http://www.w3.org/1999/xlink" width="33.875" height="32"><defs><style type="text/css"></style></defs><path d="M79.384794 561.062573l-0.48185 0.48185 438.001687 439.08585 0.120463-0.120462a74.927681 74.927681 0 0 0 111.548284-5.059426l421.076704-422.040404a75.409531 75.409531 0 0 0-42.041416-137.989806h-205.569273V99.450235c0-4.276419-0.361388-8.552838-0.843238-12.648564A75.3493 75.3493 0 0 0 715.54731 0.911901a99.80319 99.80319 0 0 0-12.708794-0.903469H437.519837c-4.276419 0-8.492607 0.301156-12.648564 0.843238a75.3493 75.3493 0 0 0-85.648844 85.829538c-0.602313 4.216188-0.843238 8.432376-0.843238 12.708795v335.969941H135.520324a75.289069 75.289069 0 0 0-56.13553 125.642398z m637.848991 12.708795a28.911002 28.911002 0 0 1 20.960477 10.239314 38.427541 38.427541 0 0 1 8.733532 22.10487 37.825228 37.825228 0 0 1-8.733532 22.345796 29.332621 29.332621 0 0 1-21.020708 9.998388l-98.357639-0.48185v54.388824c-1.325088 29.091696-17.226139 43.66766-47.582692 43.667659-15.057814 0-26.742677-3.613875-35.114822-10.841625-8.372144-7.107288-12.889489-18.069377-13.552032-32.826034v-53.364892H423.666648a27.104065 27.104065 0 0 1-21.261633-11.564401 50.232867 50.232867 0 0 1-8.914226-23.369727 37.042222 37.042222 0 0 1 8.914226-21.08094c4.999194-5.420813 12.046251-8.492607 21.261633-9.215382h98.899721V541.547647L423.666648 540.945334a29.392852 29.392852 0 0 1-21.261633-9.757463 40.29471 40.29471 0 0 1-8.914226-22.104871 37.042222 37.042222 0 0 1 8.914226-21.020708c4.999194-5.420813 12.046251-8.552838 21.261633-9.215382H497.510167l-68.663631-121.185285a77.2767 77.2767 0 0 1-9.697232-15.660126 42.402804 42.402804 0 0 1-4.095725-20.779783 48.124773 48.124773 0 0 1 10.239313-23.369727c5.119657-6.023126 14.696426-9.817695 28.670078-11.564401a41.137947 41.137947 0 0 1 22.044639 8.492607c6.444744 4.938963 11.745095 10.359776 15.84082 16.141976l77.879013 142.748075 85.528382-143.772006a62.038193 62.038193 0 0 1 15.901051-15.35897 49.148704 49.148704 0 0 1 22.04464-8.251682c5.119657 0.361388 9.817695 1.023931 14.094113 2.047862a27.947302 27.947302 0 0 1 19.454696 15.419202 57.822005 57.822005 0 0 1 4.8185 17.467064 45.655291 45.655291 0 0 1-10.239313 28.248458l-79.384794 129.376736h75.289068a30.778171 30.778171 0 0 1 21.020709 9.215382 33.729503 33.729503 0 0 1 8.733532 21.08094 38.126384 38.126384 0 0 1-9.034689 22.58672 29.814471 29.814471 0 0 1-21.201402 10.239314l-97.875789 0.542081v31.320253h98.357639z" p-id="4043"></path></svg>