<?xml version="1.0" standalone="no"?><!DOCTYPE svg PUBLIC "-//W3C//DTD SVG 1.1//EN" "http://www.w3.org/Graphics/SVG/1.1/DTD/svg11.dtd"><svg t="1513664337828" class="icon" style="" viewBox="0 0 1024 1024" version="1.1" xmlns="http://www.w3.org/2000/svg" p-id="3917" xmlns:xlink="http://www.w3.org/1999/xlink" width="32" height="32"><defs><style type="text/css"></style></defs><path d="M928.7 323.4h-59.1c10-12.7 15.5-28.1 15.1-44.6-0.4-18.8-8-36.3-21.5-49.3L674.4 48c-27.9-26.8-72.5-26-99.4 2l-53.1 55.2-86.5-54c-32.9-20.5-76.3-10.5-96.9 22.4L182.4 323.4h-87c-51.7 0-93.7 42-93.7 93.7v484.7c0 51.7 42 93.7 93.7 93.7h833.4c51.7 0 93.7-42 93.7-93.7V417.1c-0.1-51.7-42.1-93.7-93.8-93.7zM529.3 165.1l0.1 0.1 1.1-1.4 78.2-81.4c4.6-4.8 10.7-7.2 16.9-7.2 5.8 0 11.7 2.2 16.2 6.5l188.8 181.5c4.5 4.3 7 10.1 7.1 16.4s-2.2 12.2-6.5 16.7l-25.9 26.9H377.1l152.2-158.1z m-151-66.7c4.4-7.1 12.1-11 19.9-11 4.2 0 8.5 1.1 12.4 3.5l78.1 48.8-176.6 183.7h-74.5l140.7-225z m597.3 803.4c0 25.8-21 46.9-46.9 46.9H95.3c-25.8 0-46.9-21-46.9-46.9V417.1c0-25.8 21-46.9 46.9-46.9h833.4c25.8 0 46.9 21 46.9 46.9v484.7z" fill="" p-id="3918"></path><path d="M819.1 421.6c-54.7 0-99.1 44.5-99.1 99.2s44.5 99.1 99.1 99.1 99.1-44.5 99.1-99.1-44.4-99.2-99.1-99.2z m0 151.5c-28.8 0-52.3-23.5-52.3-52.3 0-28.8 23.5-52.3 52.3-52.3 28.8 0 52.3 23.5 52.3 52.3 0 28.8-23.5 52.3-52.3 52.3z" fill="" p-id="3919"></path></svg>