<?xml version="1.0" standalone="no"?><!DOCTYPE svg PUBLIC "-//W3C//DTD SVG 1.1//EN" "http://www.w3.org/Graphics/SVG/1.1/DTD/svg11.dtd"><svg t="1513664124004" class="icon" style="" viewBox="0 0 1024 1024" version="1.1" xmlns="http://www.w3.org/2000/svg" p-id="14717" xmlns:xlink="http://www.w3.org/1999/xlink" width="32" height="32"><defs><style type="text/css"></style></defs><path d="M1003.811202 461.864342l0.481848-0.481848L566.293424 22.358941l-0.120462 0.120462a74.927329 74.927329 0 0 0-111.547759 5.059402L33.430018 449.516992a75.409177 75.409177 0 0 0 42.101449 138.049387h205.568306v335.908129c0 4.33663 0.301155 8.552798 0.843234 12.708735A75.348946 75.348946 0 0 0 367.711911 1022.012378c4.216168 0.60231 8.432336 0.843234 12.708735 0.843234h265.31743c4.276399 0 8.492567-0.301155 12.648504-0.783003a75.348946 75.348946 0 0 0 85.648442-85.829135c0.60231-4.216168 0.843234-8.432336 0.843233-12.768966V587.566379h202.857913a75.288715 75.288715 0 0 0 56.135265-125.702037z m-343.798386 112.571686a28.910866 28.910866 0 0 1 21.020609 10.239265 38.42736 38.42736 0 0 1 8.67326 22.104766 37.82505 37.82505 0 0 1-8.67326 22.28546 29.332483 29.332483 0 0 1-21.020609 10.058572L561.655639 638.521781v54.448799c-1.325081 29.091559-17.226058 43.607223-47.582467 43.607223-15.057743 0-26.742551-3.613858-35.114657-10.781344-8.372105-7.227717-12.889428-18.129522-13.551968-32.825879v-53.424872H366.507291a27.103937 27.103937 0 0 1-21.261533-11.564347 50.23263 50.23263 0 0 1-8.974415-23.309386 37.042048 37.042048 0 0 1 9.034646-21.08084c4.878709-5.420787 11.985963-8.552798 21.201302-9.215338h98.899256v-32.344032L366.507291 541.549917a29.392714 29.392714 0 0 1-21.261533-9.757417 40.29452 40.29452 0 0 1-8.974415-22.044536 37.042048 37.042048 0 0 1 9.034646-21.08084c4.878709-5.420787 11.985963-8.552798 21.201302-9.215339h73.782941l-68.663308-121.184715a77.276337 77.276337 0 0 1-9.697187-15.660052 42.402604 42.402604 0 0 1-4.095706-20.779686 48.124546 48.124546 0 0 1 10.239265-23.369617c5.119633-6.023097 14.636126-9.817648 28.669943-11.504115a41.137754 41.137754 0 0 1 22.044536 8.432336c6.444714 4.999171 11.745039 10.359727 15.840745 16.202131l77.878647 142.747403 85.527979-143.771329a62.037901 62.037901 0 0 1 15.900977-15.419129 49.148473 49.148473 0 0 1 21.984304-8.191412c5.179864 0.301155 9.817648 1.023927 14.094048 2.047853 4.276399 1.023927 8.07095 2.710394 11.263192 5.119632 3.252472 2.409239 6.023097 5.842404 8.191412 10.239266a57.821733 57.821733 0 0 1 4.878708 17.466981 45.655077 45.655077 0 0 1-10.239265 28.248326L584.724102 479.451785h75.288714a30.778027 30.778027 0 0 1 21.020609 9.215339 33.729344 33.729344 0 0 1 8.67326 21.08084 38.126205 38.126205 0 0 1-8.914184 22.586614 29.814331 29.814331 0 0 1-21.261533 10.239266l-97.875329 0.542078v31.320106h98.357177z" p-id="14718"></path></svg>