<?xml version="1.0" standalone="no"?><!DOCTYPE svg PUBLIC "-//W3C//DTD SVG 1.1//EN" "http://www.w3.org/Graphics/SVG/1.1/DTD/svg11.dtd"><svg t="1513664302387" class="icon" style="" viewBox="0 0 1024 1024" version="1.1" xmlns="http://www.w3.org/2000/svg" p-id="2313" xmlns:xlink="http://www.w3.org/1999/xlink" width="32" height="32"><defs><style type="text/css"></style></defs><path d="M889.72288 521.53856a402.15552 402.15552 0 0 1 33.11104-1.3568c19.69664 0 33.60256 1.3568 33.72544 1.3568l67.14368 6.52288-28.4928-61.05088-173.06112-370.06336-9.78432-20.98688-23.20384-1.11104s-8.9856-0.49152-22.83008-0.49152c-44.6208 0-105.42592 4.30592-141.85984 24.49408-15.32416 8.49408-44.49792 27.93984-81.42336 52.43904-69.72928 46.40256-175.15008 116.56192-226.91328 137.856-77.9776 32.12288-214.05184 65.11104-215.40352 65.4848l-45.97248 11.07456 20.18816 42.71104 43.01824 90.83904c-40.3712 11.19744-71.1424 18.70848-71.7568 18.83136l-45.91104 11.07968L20.48 571.88352l168.20224 355.59936 9.9072 21.04832 23.38816 0.98304s4.67456 0.12288 12.86144 0.12288c39.69536 0 140.25728-4.06528 217.25184-42.58816 50.09408-25.10848 125.85472-77.91616 192.62976-124.4416 52.00384-36.31104 101.11488-70.528 124.50304-82.22208 21.53984-10.83392 56.74496-16.73728 99.08736-16.73728 19.69664 0 33.60256 1.3568 33.72544 1.3568l67.20512 6.58432-28.55424-61.11232-50.96448-108.93824zM109.7216 391.93088s139.33568-33.60256 221.06624-67.20512c81.73056-33.72544 269.12768-168.25856 312.3968-192.26112 3.44576-1.9712 7.38816-3.56864 11.5712-5.16608 1.10592-0.43008 2.21184-0.86016 3.32288-1.23392 3.56864-1.2288 7.3216-2.40128 11.264-3.44576 0.79872-0.12288 1.54112-0.36864 2.2784-0.6144a251.33568 251.33568 0 0 1 14.52544-3.07712c1.2288-0.24576 2.46272-0.36864 3.69152-0.6144 4.06016-0.6144 8.18688-1.23392 12.30848-1.78176 1.23392-0.18432 2.40128-0.3072 3.56864-0.43008 5.10976-0.6144 10.15808-1.10592 15.13984-1.47968 0.98304-0.12288 1.84832-0.12288 2.83136-0.24576 4.18304-0.3072 8.24832-0.55296 12.24704-0.7424 1.29536-0.12288 2.64704-0.12288 3.93728-0.24576 4.49536-0.12288 8.92416-0.3072 12.98432-0.36864 0.24576 0 0.43008-0.06144 0.67584-0.06144 4.12672-0.06144 7.87968-0.06144 11.38688-0.06144h11.68896c1.2288 0.06144 2.33984 0.06144 3.32288 0.12288h2.46272c0.98304 0.06144 1.60256 0.12288 2.33984 0.12288h1.41312c0.79872 0.06144 1.16736 0.12288 1.16736 0.12288l173.06112 370.00192s-0.43008 0-0.86528-0.06144c-0.18432-0.06144-0.36864-0.06144-0.73728-0.06144a17.00864 17.00864 0 0 0-2.02752-0.12288c-0.43008-0.12288-0.7424-0.12288-1.16736-0.12288-0.98304-0.12288-2.15552-0.12288-3.38432-0.24576-0.55296 0-0.9216 0-1.47456-0.12288-3.75808-0.18432-8.3712-0.36864-13.72672-0.6144h-2.09408a222.5408 222.5408 0 0 0-6.52288-0.12288h-2.83136c-0.9216 0-1.78688-0.06144-2.70848-0.06144-0.79872 0-1.72032 0.06144-2.52416 0.06144-2.46272 0-4.98688 0-7.57248 0.12288-1.664 0-3.32288 0-5.04832 0.12288-2.70848 0.06144-5.53984 0.18432-8.43264 0.36864-1.664 0.06144-3.26144 0.12288-4.85888 0.24576-4.18816 0.24576-8.3712 0.6144-12.67712 0.98304-0.67584 0.12288-1.41312 0.12288-2.1504 0.24576-2.2784 0.24576-4.74112 0.55296-7.08096 0.86016-1.9712 0.24576-3.93728 0.43008-5.96992 0.7424l-4.864 0.73728c-3.13856 0.49152-6.27712 1.0496-9.41568 1.72544-1.84832 0.3072-3.63008 0.73728-5.4784 1.10592a203.9808 203.9808 0 0 0-8.80128 2.09408c-1.41824 0.36864-2.8928 0.73728-4.37248 1.10592-0.3072 0.12288-0.6144 0.24576-0.98304 0.36864a139.4176 139.4176 0 0 0-8.9856 2.8928c-1.47456 0.55296-3.01568 1.04448-4.49536 1.536-4.36736 1.664-8.55552 3.44576-12.61568 5.41696-57.60512 28.86656-230.66624 163.46112-317.1328 206.66368-4.98176 2.52416-10.15296 4.80256-15.32416 7.0144-1.72544 0.67584-3.44576 1.3568-5.1712 1.9712-3.56864 1.47456-7.19872 2.83136-10.83392 4.18304-2.02752 0.67584-4.06016 1.35168-6.03136 1.9712-3.56864 1.2288-7.13728 2.33984-10.71104 3.32288-1.9712 0.61952-3.87584 1.23392-5.84704 1.72544-3.99872 1.16736-8.064 2.21184-12.12416 3.2-1.47456 0.36864-2.95424 0.73728-4.37248 1.11104-5.35552 1.2288-10.77248 2.40128-16.18432 3.44576-1.60256 0.3072-3.2 0.6144-4.864 0.86016-3.8144 0.73728-7.57248 1.3568-11.32544 1.9712-2.15552 0.36864-4.18816 0.7424-6.27712 0.98304-3.26144 0.49152-6.46144 0.98304-9.53856 1.3568-2.15552 0.36864-4.24448 0.6144-6.33856 0.86016-3.13856 0.36864-6.21568 0.73728-9.16992 1.0496-1.9712 0.18432-3.87584 0.43008-5.72416 0.55296-3.63008 0.36864-7.07584 0.67584-10.52672 0.98304-2.33472 0.12288-4.67456 0.36864-6.95296 0.49152-2.8928 0.24576-5.84704 0.36864-8.55552 0.55296-2.03264 0.12288-3.93728 0.18432-5.90848 0.3072-1.90976 0.12288-3.8144 0.18432-5.66272 0.24576l-5.53984 0.18432c-1.536 0.06144-3.01568 0.06144-4.43392 0.12288-1.84832 0.06144-3.56864 0.06144-5.16608 0.06144-0.9216 0.06144-1.72544 0.06144-2.5856 0.06144-5.7856 0.06144-10.2144 0-12.92288-0.06144h-2.58048c-0.3072 0-0.79872-0.06144-0.79872-0.06144l-105.856-223.83616-16.68096-35.2-45.6448-96.62976z m795.33056 254.78656c-0.18432-0.06144-0.43008-0.06144-0.7424-0.12288-0.55296 0-1.2288-0.12288-2.02752-0.12288-0.43008 0-0.79872-0.06144-1.2288-0.12288-0.98304-0.06144-2.09408-0.12288-3.32288-0.24576-0.55296 0-0.98304 0-1.536-0.06144-3.69152-0.18432-8.30976-0.43008-13.72672-0.6144-0.67584-0.06144-1.35168-0.06144-2.09408-0.06144-2.09408 0-4.24448-0.06144-6.52288-0.12288H865.78688c-2.40128 0-4.98688 0.12288-7.57248 0.12288-1.60256 0-3.32288 0.06144-4.98176 0.12288l-8.43264 0.36864c-1.65888 0.12288-3.26144 0.12288-4.92032 0.24576-4.12672 0.24576-8.3712 0.6144-12.61568 0.98304a25.9584 25.9584 0 0 1-2.15552 0.24576c-4.31104 0.49152-8.73984 0.98304-13.04576 1.60256-1.60256 0.24576-3.26144 0.49152-4.864 0.79872-3.13856 0.49152-6.33856 1.04448-9.41568 1.664l-5.53984 1.10592a209.3056 209.3056 0 0 0-8.73984 2.1504c-1.8432 0.43008-3.63008 0.9216-5.41696 1.41312-3.07712 0.9216-6.03136 1.84832-8.9856 2.95424l-4.4288 1.47456c-4.36736 1.72544-8.61696 3.44576-12.61568 5.4784-57.66656 28.86656-230.66624 163.39968-317.1328 206.66368-5.04832 2.52416-10.2144 4.736-15.3856 6.95296-1.72032 0.7424-3.44576 1.3568-5.16608 2.09408-3.57376 1.35168-7.1424 2.70848-10.83392 4.06016a552.40704 552.40704 0 0 1-16.67584 5.41184c-1.9712 0.49152-3.87584 1.10592-5.84704 1.664-4.06016 1.16736-8.12544 2.15552-12.1856 3.13856a431.0016 431.0016 0 0 0-4.30592 1.10592c-5.41696 1.2288-10.8288 2.46272-16.18432 3.44576-1.664 0.36864-3.26144 0.6144-4.864 0.86016-3.8144 0.73728-7.6288 1.47968-11.32544 2.03264-2.1504 0.36864-4.18304 0.67584-6.27712 0.98304-3.26144 0.49152-6.46144 0.9216-9.6 1.41824l-6.27712 0.73728c-3.13856 0.36864-6.21568 0.7424-9.23136 1.10592-1.90976 0.12288-3.8144 0.36864-5.66272 0.55296-3.63008 0.3072-7.13728 0.67584-10.58304 0.9216a304.896 304.896 0 0 1-6.89152 0.49152c-2.95424 0.24576-5.84704 0.43008-8.55552 0.6144-2.03264 0.12288-3.99872 0.18432-5.90848 0.24576-1.90976 0.12288-3.88096 0.24576-5.66272 0.24576-1.9712 0.12288-3.75296 0.12288-5.60128 0.24576-1.47456 0-2.95424 0.06144-4.36736 0.12288-1.84832 0-3.63008 0-5.23264 0.06144-0.86016 0.06144-1.72544 0.06144-2.52416 0.06144-5.84704 0-10.2144 0-12.92288-0.12288h-3.38432L55.1936 555.44832s34.5856-8.30976 79.45216-20.864l108.50304 229.43744 9.96864 21.04832 23.32672 0.9216s4.67456 0.18432 12.86144 0.18432c39.69536 0 140.25728-4.18304 217.25184-42.6496 50.15552-25.04704 125.85472-77.8496 192.62976-124.38016 52.06528-36.31104 101.17632-70.528 124.56448-82.22208 7.26016-3.69152 16.24576-6.76864 26.46528-9.23136l55.63392 119.02464h-0.79872z" fill="" p-id="2314"></path><path d="M205.8496 507.25888c0.98304 0 2.09408 0 3.13856-0.24576 2.46272-0.36864 16.4352-2.83136 37.72416-7.50592 83.0208-18.46272 279.3472-73.05216 354.86208-188.32384 4.31104-6.52288 3.99872-14.7712 0-20.92544v-0.12288a19.8144 19.8144 0 0 0-5.53984-5.53984c-8.86272-5.7856-20.80256-3.32288-26.58816 5.53984-9.53856 14.52544-21.53984 27.93984-35.20512 40.49408-26.40384 24.24832-59.26912 44.86656-94.03904 62.1568-74.8288 37.23776-157.97248 59.20768-203.33056 69.36576-20.67968 4.61312-33.60256 6.83008-34.22208 6.95296-5.66272 0.98304-10.2144 4.43392-13.04576 8.9856-2.33984 3.8144-3.56864 8.3712-2.70848 13.16864 1.54112 9.35424 9.72288 16 18.95424 16z" fill="" p-id="2315"></path><path d="M241.11616 526.83264a19.18976 19.18976 0 0 0-15.81568 22.0928 19.2512 19.2512 0 0 0 18.95424 16.06144c1.04448 0 2.09408-0.12288 3.2-0.24576 12.06272-2.09408 297.74848-51.14368 392.5248-195.89632a19.2 19.2 0 0 0-5.53984-26.6496 19.28704 19.28704 0 0 0-26.58816 5.53984c-85.6064 130.72384-363.96544 178.60608-366.73536 179.0976zM458.8544 559.0784c-49.0496 35.57376-174.22848 63.75936-175.4624 64.00512a19.23584 19.23584 0 0 0-14.6432 22.89664 19.29728 19.29728 0 0 0 18.76992 15.13984c1.41824 0 2.76992-0.18432 4.18816-0.49152 5.4784-1.2288 134.28736-30.1568 189.73696-70.528 8.61696-6.21568 10.46016-18.21696 4.24448-26.8288a19.12832 19.12832 0 0 0-26.83392-4.19328zM641.20832 316.35456c35.75808 55.08096 96.99328 2.21696 122.04544 25.41568 1.04448 1.0496 2.21696 1.90976 3.13856 3.26144l1.9712 3.07712c3.5072 5.53984 5.28896 11.01312 5.53984 16.36864 0.43008 10.64448-5.66272 20.80256-19.5072 29.48096-20.67968 13.04576-42.89536 11.8784-54.528-6.64576l-1.0496-1.664-14.52544 9.78432 21.35552 33.90976c16.3072-5.23264 37.96992-12.8 52.864-22.15424a147.61984 147.61984 0 0 0 25.728-20.49536c11.56608-11.63264 20.5568-24.92416 24.49408-38.46144 3.69152-12.92288 2.83136-26.21952-4.92544-38.528-6.64576-10.46528-14.40256-16.86528-22.77376-20.67968-13.66016-6.27712-29.04576-5.41696-43.8784-3.07712-26.15808 4.1216-50.52928 12.92288-60.86656-3.5072a54.81472 54.81472 0 0 1-2.64704-4.864c-6.0928-13.16864-2.8928-25.66144 12.61568-35.45088a57.82016 57.82016 0 0 1 7.7568-4.06016c10.46016-4.4288 20.43392-4.24448 28.8-0.12288 5.1712 2.5856 9.72288 6.52288 13.35808 12.06272l12.12416-11.07456 0.79872-0.7424-20.18816-32.00512c-13.8496 6.4-33.90976 16.98816-46.95552 25.23648-3.69152 2.33472-7.38816 4.92032-10.95168 7.75168-14.27968 11.44832-27.01824 26.58816-32.49664 42.09664 0 0 0 0.06144-0.06144 0.12288-4.18304 11.81696-4.18304 23.87968 2.5856 34.7136l0.1792 0.25088z" fill="" p-id="2316"></path></svg>